<?xml version="1.0" standalone="no"?>
<!DOCTYPE svg PUBLIC "-//W3C//DTD SVG 20010904//EN"
 "http://www.w3.org/TR/2001/REC-SVG-20010904/DTD/svg10.dtd">
<svg version="1.0" xmlns="http://www.w3.org/2000/svg"
 width="512.000000pt" height="512.000000pt" viewBox="0 0 512.000000 512.000000"
 preserveAspectRatio="xMidYMid meet">
<metadata>
Created by potrace 1.14, written by Peter Selinger 2001-2017
</metadata>
<g transform="translate(0.000000,512.000000) scale(0.100000,-0.100000)"
fill="#000000" stroke="none">
<path d="M370 4867 c-49 -16 -104 -75 -119 -128 -9 -34 -11 -542 -9 -2244 l3
-2200 24 -38 c13 -21 42 -50 64 -65 l41 -27 2191 0 2191 0 41 27 c22 15 51 44
64 65 l24 38 3 2200 c2 1702 0 2210 -9 2244 -16 56 -71 112 -125 129 -56 16
-4331 16 -4384 -1z m3483 -296 c21 -13 50 -42 65 -64 l27 -41 3 -1921 2 -1922
-28 -54 c-22 -43 -38 -59 -81 -81 l-53 -28 -1238 0 -1238 0 -53 28 c-43 22
-59 38 -81 81 l-28 53 0 1902 c0 1307 3 1913 11 1939 13 47 76 113 121 126 20
6 512 9 1283 8 l1250 -2 38 -24z"/>
<path d="M1725 4155 c-51 -18 -110 -81 -124 -131 -16 -56 -15 -545 1 -598 16
-52 72 -108 124 -124 59 -17 1579 -17 1638 0 52 16 108 72 124 124 16 54 17
542 1 599 -15 52 -82 119 -134 134 -28 7 -277 11 -815 11 -642 -1 -782 -3
-815 -15z"/>
<path d="M1795 2905 c-76 -27 -135 -115 -135 -200 0 -40 31 -104 66 -137 104
-97 264 -64 325 67 35 76 18 158 -45 221 -60 61 -131 77 -211 49z"/>
<path d="M2495 2905 c-76 -27 -135 -115 -135 -200 0 -40 31 -104 66 -137 104
-97 264 -64 325 67 35 76 18 158 -45 221 -60 61 -131 77 -211 49z"/>
<path d="M3235 2905 c-76 -27 -135 -115 -135 -200 0 -40 31 -104 66 -137 104
-97 264 -64 325 67 35 76 18 158 -45 221 -60 61 -131 77 -211 49z"/>
<path d="M1795 2245 c-76 -27 -135 -115 -135 -200 0 -40 31 -104 66 -137 104
-97 264 -64 325 67 35 76 18 158 -45 221 -60 61 -131 77 -211 49z"/>
<path d="M2495 2245 c-76 -27 -135 -115 -135 -200 0 -40 31 -104 66 -137 104
-97 264 -64 325 67 35 76 18 158 -45 221 -60 61 -131 77 -211 49z"/>
<path d="M3235 2245 c-76 -27 -135 -115 -135 -200 0 -40 31 -104 66 -137 104
-97 264 -64 325 67 35 76 18 158 -45 221 -60 61 -131 77 -211 49z"/>
<path d="M1795 1585 c-76 -27 -135 -115 -135 -200 0 -40 31 -104 66 -137 104
-97 264 -64 325 67 35 76 18 158 -45 221 -60 61 -131 77 -211 49z"/>
<path d="M2495 1585 c-76 -27 -135 -115 -135 -200 0 -40 31 -104 66 -137 104
-97 264 -64 325 67 35 76 18 158 -45 221 -60 61 -131 77 -211 49z"/>
<path d="M3235 1585 c-76 -27 -135 -115 -135 -200 0 -40 31 -104 66 -137 104
-97 264 -64 325 67 35 76 18 158 -45 221 -60 61 -131 77 -211 49z"/>
</g>
</svg>
